<?xml version="1.0" ?><svg data-name="Layer 1" id="Layer_1" viewBox="0 0 64 64" xmlns="http://www.w3.org/2000/svg"><path d="M24.87,53a4.45,4.45,0,0,1-.56,0l-5.62-.57a.81.81,0,0,1-.58-.36.78.78,0,0,1-.07-.68c.48-1.25.92-2.7,1.14-3.5-2.89-1.7-5.33-4.86-6.94-9l-3.19,0a.77.77,0,0,1-.56-.25A.78.78,0,0,1,8.3,38,23.2,23.2,0,0,0,8,30.74a.77.77,0,0,1,.1-.63.75.75,0,0,1,.54-.34l3.15-.42A16.1,16.1,0,0,1,14.35,26a2.36,2.36,0,0,0,.53-.67,22.25,22.25,0,0,0-.58-2.69c-.27-1-.54-2.09-.68-2.94A.77.77,0,0,1,14.81,19c.12,0,.46.11.74.17a10.23,10.23,0,0,1,5.21,2.3,14.16,14.16,0,0,1,7.18-1.84.77.77,0,0,1,.79.75.76.76,0,0,1-.74.79c-3,.1-5.35.75-6.87,1.93a.76.76,0,0,1-.58.16.75.75,0,0,1-.51-.3c-1.11-1.47-3.27-2-4.64-2.25.12.52.26,1.08.4,1.62.58,2.3.75,3.08.55,3.59a3.55,3.55,0,0,1-.89,1.23,16,16,0,0,0-2.51,3.36.78.78,0,0,1-.56.37l-2.69.36a27,27,0,0,1,.21,6.09l2.89,0a.76.76,0,0,1,.71.5c1.57,4.28,4,7.45,6.93,9a.78.78,0,0,1,.4.84c-.09.41-.5,1.87-1,3.34l4.64.47a1.41,1.41,0,0,0,.75,0,1.69,1.69,0,0,0,.37-.63,2.84,2.84,0,0,0,.3-1,4.86,4.86,0,0,1,.42-1.4.78.78,0,0,1,.83-.45,22.38,22.38,0,0,0,8.09-.71l.31-.07a.73.73,0,0,1,.65.15.74.74,0,0,1,.29.6,6.82,6.82,0,0,0,1.12,1.52c.23.26.47.53.68.8,1.69-.5,3.42-.94,5.14-1.3-.21-.37-.34-.62-.45-.85a7.63,7.63,0,0,0-1.19-1.78A.78.78,0,0,1,42,45.13c1.5-.77,2.54-2.55,3.54-4.27.17-.29.34-.59.51-.87a10.51,10.51,0,0,0,.75-8.88,13.88,13.88,0,0,0-7.64-8.32.77.77,0,0,1-.43-1,.77.77,0,0,1,1-.43,15.41,15.41,0,0,1,8.53,9.26,12,12,0,0,1-.89,10.16c-.17.28-.33.57-.5.86A14,14,0,0,1,43.5,46a8.08,8.08,0,0,1,.85,1.38A10.86,10.86,0,0,0,45.3,49a.79.79,0,0,1,.07.73.77.77,0,0,1-.57.46,62.8,62.8,0,0,0-6.59,1.64.76.76,0,0,1-.86-.3c-.24-.34-.59-.74-.92-1.12a10,10,0,0,1-1.24-1.62,24.09,24.09,0,0,1-7.68.72,2.15,2.15,0,0,0-.1.44,4.21,4.21,0,0,1-.42,1.4,2.78,2.78,0,0,1-.92,1.29A2.12,2.12,0,0,1,24.87,53Zm-10-34Z" fill="#1b1c20"/><path d="M39.53,29.23a.78.78,0,0,1-.33-.07,17.28,17.28,0,0,0-13.46-.42.76.76,0,0,1-1-.42.78.78,0,0,1,.42-1,18.89,18.89,0,0,1,14.7.46.77.77,0,0,1,.37,1A.79.79,0,0,1,39.53,29.23Z" fill="#1b1c20"/><path d="M37.79,28.33a.8.8,0,0,1-.65-.35.78.78,0,0,1,.22-1.07,2.81,2.81,0,0,0,1.2-2.13,6.72,6.72,0,0,0-1.48-4.88,5,5,0,0,0-4.77-1.46,5.35,5.35,0,0,0-3.82,3c-.65,1.4-.15,4.69.11,5.26a.77.77,0,0,1-1.17,1c-.5-.51-.7-2.4-.74-3a8.42,8.42,0,0,1,.4-3.95A6.93,6.93,0,0,1,32,16.93a6.55,6.55,0,0,1,6.22,1.94A8.32,8.32,0,0,1,40.09,25a4.34,4.34,0,0,1-1.88,3.22A.74.74,0,0,1,37.79,28.33ZM28.53,26.6Z" fill="#1b1c20"/><path d="M49.66,33.24a5,5,0,0,1-1.39-.19.77.77,0,0,1,.43-1.48,3.74,3.74,0,0,0,3.48-.83A4.59,4.59,0,0,1,50,28.28a2.47,2.47,0,0,1,.4-2.22,2.76,2.76,0,0,1,2.51-1.13,2.38,2.38,0,0,1,2,1.41,4.42,4.42,0,0,1-.29,3.57C56.05,30,57.35,29,58.74,27a.77.77,0,0,1,1.28.87c-.67,1-2.46,3.58-5.28,3.58a4.44,4.44,0,0,1-1-.11l-.29.33A5.42,5.42,0,0,1,49.66,33.24Zm3-6.78a1.27,1.27,0,0,0-1,.51,1,1,0,0,0-.16.87,3.28,3.28,0,0,0,1.61,1.66A3.23,3.23,0,0,0,53.51,27a.85.85,0,0,0-.73-.52Z" fill="#1b1c20"/><path d="M18.92,33.11a2.62,2.62,0,0,1-.87-.16,2.16,2.16,0,0,1-1.54-1.81,3.26,3.26,0,0,1,1.58-2.88.79.79,0,0,1,.55-.12,2.42,2.42,0,0,1,2.45,1.08,2.48,2.48,0,0,1-.19,3A2.6,2.6,0,0,1,18.92,33.11Zm-.2-3.41A1.73,1.73,0,0,0,18,31c0,.1,0,.35.55.54a1.05,1.05,0,0,0,1.11-.3,1,1,0,0,0,.09-1.16.86.86,0,0,0-1-.36Z" fill="#1b1c20"/></svg>